<?xml version="1.0" standalone="no"?>
<!DOCTYPE svg PUBLIC "-//W3C//DTD SVG 20010904//EN"
 "http://www.w3.org/TR/2001/REC-SVG-20010904/DTD/svg10.dtd">
<svg version="1.0" xmlns="http://www.w3.org/2000/svg"
 width="48.000000pt" height="48.000000pt" viewBox="0 0 48.000000 48.000000"
 preserveAspectRatio="xMidYMid meet">

<g transform="translate(0.000000,48.000000) scale(0.100000,-0.100000)"
fill="#000000" stroke="none">
<path d="M262 368 c-10 -10 -2 -23 35 -60 l47 -48 -142 0 c-135 0 -142 -1
-142 -20 0 -19 7 -20 142 -20 l142 0 -47 -48 c-43 -44 -46 -50 -32 -62 14 -12
25 -4 88 58 l72 72 -70 70 c-38 38 -72 70 -75 70 -3 0 -11 -5 -18 -12z"/>
</g>
</svg>
