<?xml version="1.0" standalone="no"?>
<!DOCTYPE svg PUBLIC "-//W3C//DTD SVG 20010904//EN"
 "http://www.w3.org/TR/2001/REC-SVG-20010904/DTD/svg10.dtd">
<svg version="1.0" xmlns="http://www.w3.org/2000/svg"
 width="552.000000pt" height="576.000000pt" viewBox="0 0 552.000000 576.000000"
 preserveAspectRatio="xMidYMid meet">

<g transform="translate(0.000000,576.000000) scale(0.100000,-0.100000)"
fill="#000000" stroke="none">
<path d="M2635 5514 c-511 -39 -931 -193 -1323 -486 -111 -84 -284 -248 -382
-363 -91 -107 -242 -334 -300 -450 -30 -60 -55 -98 -75 -111 -26 -17 -30 -26
-33 -74 -2 -30 -21 -109 -42 -176 -78 -239 -113 -467 -113 -734 0 -484 131
-924 393 -1318 244 -366 548 -636 931 -826 236 -118 471 -191 739 -232 142
-22 489 -25 630 -5 809 111 1483 589 1844 1308 282 560 331 1220 136 1814 -23
70 -40 142 -40 168 0 52 -6 63 -37 80 -13 6 -44 54 -74 111 -57 113 -179 300
-263 405 -31 39 -109 123 -174 188 -432 436 -999 680 -1627 700 -77 3 -162 3
-190 1z m435 -220 c560 -80 1075 -379 1423 -826 73 -93 180 -258 173 -266 -3
-2 -51 2 -108 9 -141 19 -777 19 -903 1 -219 -33 -387 -81 -554 -157 -128 -59
-211 -78 -341 -78 -131 0 -209 18 -347 82 -187 85 -393 137 -636 162 -142 14
-690 7 -820 -11 -48 -6 -92 -10 -97 -8 -6 2 20 50 58 108 225 344 517 603 887
785 246 121 555 202 830 219 101 6 325 -5 435 -20z m-208 -1487 c62 -47 94
-121 129 -290 47 -230 68 -287 151 -412 106 -159 263 -263 483 -321 86 -23
122 -27 250 -28 154 -1 215 8 335 46 207 66 353 184 440 358 49 96 68 159 96
315 28 155 46 224 76 293 15 32 23 41 28 31 15 -27 69 -260 87 -371 26 -168
24 -482 -5 -648 -64 -378 -200 -696 -422 -991 -88 -116 -315 -342 -433 -428
-302 -223 -629 -360 -997 -417 -159 -25 -482 -25 -635 0 -386 62 -722 205
-1027 438 -241 183 -471 460 -612 737 -164 323 -238 633 -238 996 -1 214 14
338 63 536 35 142 44 162 59 139 22 -34 61 -174 84 -305 46 -254 96 -365 226
-496 159 -160 358 -233 635 -234 312 0 564 110 718 314 97 127 124 193 171
414 59 281 110 357 243 357 43 0 59 -5 95 -33z"/>
<path d="M1664 2289 c-11 -13 -19 -35 -19 -59 0 -54 74 -159 200 -286 187
-188 397 -302 666 -360 117 -26 380 -26 499 -1 315 67 571 225 772 476 92 115
112 165 87 214 -29 54 -63 49 -177 -24 -189 -123 -420 -218 -636 -262 -158
-31 -443 -31 -595 2 -224 48 -430 133 -633 260 -103 65 -134 73 -164 40z"/>
</g>
</svg>
